%TF.GenerationSoftware,KiCad,Pcbnew,7.0.11+dfsg-1build4*%
%TF.CreationDate,2026-10-09T10:15:48+00:00*%
%TF.ProjectId,TARS-Lite-DXL-Neck,54415253-2d4c-4697-9465-2d44584c2d4e,1.0*%
%TF.SameCoordinates,Original*%
%TF.FileFunction,Copper,L1,Top*%
%TF.FilePolarity,Positive*%
%FSLAX46Y46*%
G04 Gerber Fmt 4.6, Leading zero omitted, Abs format (unit mm)*
G04 Created by KiCad (PCBNEW 7.0.11+dfsg-1build4) date 2026-10-09 10:15:48*
%MOMM*%
%LPD*%
G01*
G04 APERTURE LIST*
G04 Aperture macros list*
%AMRoundRect*
0 Rectangle with rounded corners*
0 $1 Rounding radius*
0 $2 $3 $4 $5 $6 $7 $8 $9 X,Y pos of 4 corners*
0 Add a 4 corners polygon primitive as box body*
4,1,4,$2,$3,$4,$5,$6,$7,$8,$9,$2,$3,0*
0 Add four circle primitives for the rounded corners*
1,1,$1+$1,$2,$3*
1,1,$1+$1,$4,$5*
1,1,$1+$1,$6,$7*
1,1,$1+$1,$8,$9*
0 Add four rect primitives between the rounded corners*
20,1,$1+$1,$2,$3,$4,$5,0*
20,1,$1+$1,$4,$5,$6,$7,0*
20,1,$1+$1,$6,$7,$8,$9,0*
20,1,$1+$1,$8,$9,$2,$3,0*%
G04 Aperture macros list end*
%TA.AperFunction,ComponentPad*%
%ADD10R,1.700000X1.700000*%
%TD*%
%TA.AperFunction,ComponentPad*%
%ADD11O,1.700000X1.700000*%
%TD*%
%TA.AperFunction,ComponentPad*%
%ADD12C,1.600000*%
%TD*%
%TA.AperFunction,ComponentPad*%
%ADD13R,1.600000X1.600000*%
%TD*%
%TA.AperFunction,ComponentPad*%
%ADD14O,1.600000X1.600000*%
%TD*%
%TA.AperFunction,ComponentPad*%
%ADD15R,3.000000X3.000000*%
%TD*%
%TA.AperFunction,ComponentPad*%
%ADD16C,3.000000*%
%TD*%
%TA.AperFunction,SMDPad,CuDef*%
%ADD17RoundRect,0.250000X-0.312500X-1.450000X0.312500X-1.450000X0.312500X1.450000X-0.312500X1.450000X0*%
%TD*%
%TA.AperFunction,Conductor*%
%ADD18C,0.450000*%
%TD*%
%TA.AperFunction,Conductor*%
%ADD19C,0.550000*%
%TD*%
%TA.AperFunction,Conductor*%
%ADD20C,0.350000*%
%TD*%
%TA.AperFunction,Conductor*%
%ADD21C,0.600000*%
%TD*%
%TA.AperFunction,Conductor*%
%ADD22C,2.000000*%
%TD*%
G04 APERTURE END LIST*
D10*
%TO.P,J2,1*%
%TO.N,GND*%
X76000000Y-9000000D03*
D11*
%TO.P,J2,2*%
%TO.N,V_SERVO*%
X76000000Y-11540000D03*
%TO.P,J2,3*%
%TO.N,DXL_DATA*%
X76000000Y-14080000D03*
%TD*%
D12*
%TO.P,C2,1*%
%TO.N,+5V_LOGIC*%
X60000000Y-47000000D03*
%TO.P,C2,2*%
%TO.N,GND*%
X65000000Y-47000000D03*
%TD*%
D13*
%TO.P,U2,1*%
%TO.N,DXL_DIR*%
X49000000Y-9000000D03*
D14*
%TO.P,U2,2*%
%TO.N,DXL_DIR_N*%
X49000000Y-11540000D03*
%TO.P,U2,3*%
%TO.N,GND*%
X49000000Y-14080000D03*
%TO.P,U2,4*%
%TO.N,N/C*%
X49000000Y-16620000D03*
%TO.P,U2,5*%
%TO.N,GND*%
X49000000Y-19160000D03*
%TO.P,U2,6*%
%TO.N,N/C*%
X49000000Y-21700000D03*
%TO.P,U2,7*%
%TO.N,GND*%
X49000000Y-24240000D03*
%TO.P,U2,8*%
%TO.N,N/C*%
X56620000Y-24240000D03*
%TO.P,U2,9*%
%TO.N,GND*%
X56620000Y-21700000D03*
%TO.P,U2,10*%
%TO.N,N/C*%
X56620000Y-19160000D03*
%TO.P,U2,11*%
%TO.N,GND*%
X56620000Y-16620000D03*
%TO.P,U2,12*%
%TO.N,N/C*%
X56620000Y-14080000D03*
%TO.P,U2,13*%
%TO.N,GND*%
X56620000Y-11540000D03*
%TO.P,U2,14*%
%TO.N,+5V_LOGIC*%
X56620000Y-9000000D03*
%TD*%
D12*
%TO.P,R2,1*%
%TO.N,DXL_DATA*%
X25000000Y-40000000D03*
D14*
%TO.P,R2,2*%
%TO.N,ESP_RX*%
X35160000Y-40000000D03*
%TD*%
D10*
%TO.P,J1,1*%
%TO.N,+5V_LOGIC*%
X8000000Y-9000000D03*
D11*
%TO.P,J1,2*%
%TO.N,GND*%
X8000000Y-11540000D03*
%TO.P,J1,3*%
%TO.N,ESP_TX*%
X8000000Y-14080000D03*
%TO.P,J1,4*%
%TO.N,ESP_RX*%
X8000000Y-16620000D03*
%TO.P,J1,5*%
%TO.N,DXL_DIR*%
X8000000Y-19160000D03*
%TD*%
D12*
%TO.P,C1,1*%
%TO.N,+5V_LOGIC*%
X40000000Y-40000000D03*
%TO.P,C1,2*%
%TO.N,GND*%
X45000000Y-40000000D03*
%TD*%
%TO.P,R1,1*%
%TO.N,TX_STAGE*%
X48000000Y-31000000D03*
D14*
%TO.P,R1,2*%
%TO.N,DXL_DATA*%
X58160000Y-31000000D03*
%TD*%
D12*
%TO.P,R4,1*%
%TO.N,DXL_DIR*%
X13000000Y-30000000D03*
D14*
%TO.P,R4,2*%
%TO.N,GND*%
X23160000Y-30000000D03*
%TD*%
D15*
%TO.P,J3,1*%
%TO.N,VBAT_2S*%
X75000000Y-43000000D03*
D16*
%TO.P,J3,2*%
%TO.N,GND*%
X80080000Y-43000000D03*
%TD*%
D13*
%TO.P,U1,1*%
%TO.N,DXL_DIR_N*%
X29000000Y-9000000D03*
D14*
%TO.P,U1,2*%
%TO.N,ESP_TX*%
X29000000Y-11540000D03*
%TO.P,U1,3*%
%TO.N,TX_STAGE*%
X29000000Y-14080000D03*
%TO.P,U1,4*%
%TO.N,+5V_LOGIC*%
X29000000Y-16620000D03*
%TO.P,U1,5*%
%TO.N,GND*%
X29000000Y-19160000D03*
%TO.P,U1,6*%
%TO.N,N/C*%
X29000000Y-21700000D03*
%TO.P,U1,7*%
%TO.N,GND*%
X29000000Y-24240000D03*
%TO.P,U1,8*%
%TO.N,N/C*%
X36620000Y-24240000D03*
%TO.P,U1,9*%
%TO.N,GND*%
X36620000Y-21700000D03*
%TO.P,U1,10*%
%TO.N,+5V_LOGIC*%
X36620000Y-19160000D03*
%TO.P,U1,11*%
%TO.N,N/C*%
X36620000Y-16620000D03*
%TO.P,U1,12*%
%TO.N,GND*%
X36620000Y-14080000D03*
%TO.P,U1,13*%
%TO.N,+5V_LOGIC*%
X36620000Y-11540000D03*
%TO.P,U1,14*%
X36620000Y-9000000D03*
%TD*%
D17*
%TO.P,F1,1*%
%TO.N,VBAT_2S*%
X61862500Y-42000000D03*
%TO.P,F1,2*%
%TO.N,V_SERVO*%
X66137500Y-42000000D03*
%TD*%
D12*
%TO.P,R3,1*%
%TO.N,ESP_RX*%
X25000000Y-47000000D03*
D14*
%TO.P,R3,2*%
%TO.N,GND*%
X35160000Y-47000000D03*
%TD*%
D18*
%TO.N,+5V_LOGIC*%
X39000000Y-11540000D02*
X39000000Y-4000000D01*
X34500000Y-16620000D02*
X34500000Y-4000000D01*
X36620000Y-11540000D02*
X39000000Y-11540000D01*
X39000000Y-40000000D02*
X39000000Y-19160000D01*
D19*
X60000000Y-4000000D02*
X60000000Y-7000000D01*
D18*
X36620000Y-19160000D02*
X39000000Y-19160000D01*
D19*
X60000000Y-7000000D02*
X56620000Y-7000000D01*
X37000000Y-4000000D02*
X60000000Y-4000000D01*
X12000000Y-4000000D02*
X37000000Y-4000000D01*
X37000000Y-4000000D02*
X37000000Y-9000000D01*
D18*
X34500000Y-4000000D02*
X37000000Y-4000000D01*
D19*
X56620000Y-7000000D02*
X56620000Y-9000000D01*
D18*
X39000000Y-19160000D02*
X39000000Y-11540000D01*
D19*
X8000000Y-9000000D02*
X12000000Y-9000000D01*
X37000000Y-9000000D02*
X36620000Y-9000000D01*
D18*
X29000000Y-16620000D02*
X34500000Y-16620000D01*
D19*
X12000000Y-9000000D02*
X12000000Y-4000000D01*
D18*
X40000000Y-40000000D02*
X39000000Y-40000000D01*
D20*
%TO.N,ESP_TX*%
X24000000Y-14080000D02*
X29000000Y-11540000D01*
X13000000Y-14080000D02*
X24000000Y-14080000D01*
X8000000Y-14080000D02*
X13000000Y-14080000D01*
%TO.N,ESP_RX*%
X22000000Y-47000000D02*
X25000000Y-47000000D01*
X22000000Y-43000000D02*
X22000000Y-47000000D01*
X35160000Y-43000000D02*
X22000000Y-43000000D01*
X35160000Y-40000000D02*
X35160000Y-43000000D01*
%TO.N,DXL_DIR*%
X8000000Y-19160000D02*
X8000000Y-50000000D01*
X42500000Y-50000000D02*
X42500000Y-8000000D01*
X8000000Y-19160000D02*
X11000000Y-18000000D01*
X11000000Y-30000000D02*
X13000000Y-30000000D01*
X8000000Y-50000000D02*
X42500000Y-50000000D01*
X42500000Y-8000000D02*
X49000000Y-8000000D01*
X11000000Y-18000000D02*
X11000000Y-30000000D01*
X49000000Y-8000000D02*
X49000000Y-9000000D01*
D21*
%TO.N,DXL_DATA*%
X73000000Y-14080000D02*
X76000000Y-14080000D01*
X73000000Y-31000000D02*
X73000000Y-14080000D01*
X58160000Y-31000000D02*
X61000000Y-31000000D01*
X61000000Y-31000000D02*
X73000000Y-31000000D01*
D22*
%TO.N,VBAT_2S*%
X75000000Y-51000000D02*
X54000000Y-51000000D01*
X75000000Y-43000000D02*
X75000000Y-51000000D01*
X54000000Y-42000000D02*
X61862500Y-42000000D01*
X54000000Y-51000000D02*
X54000000Y-42000000D01*
%TO.N,V_SERVO*%
X82000000Y-38000000D02*
X82000000Y-11540000D01*
X82000000Y-11540000D02*
X76000000Y-11540000D01*
X66137500Y-42000000D02*
X68000000Y-38000000D01*
X68000000Y-38000000D02*
X82000000Y-38000000D01*
%TD*%
M02*
