%TF.GenerationSoftware,KiCad,Pcbnew,7.0.11+dfsg-1build4*%
%TF.CreationDate,2026-10-09T10:15:48+00:00*%
%TF.ProjectId,TARS-Lite-DXL-Neck,54415253-2d4c-4697-9465-2d44584c2d4e,1.0*%
%TF.SameCoordinates,Original*%
%TF.FileFunction,Soldermask,Bot*%
%TF.FilePolarity,Negative*%
%FSLAX46Y46*%
G04 Gerber Fmt 4.6, Leading zero omitted, Abs format (unit mm)*
G04 Created by KiCad (PCBNEW 7.0.11+dfsg-1build4) date 2026-10-09 10:15:48*
%MOMM*%
%LPD*%
G01*
G04 APERTURE LIST*
%ADD10R,1.700000X1.700000*%
%ADD11O,1.700000X1.700000*%
%ADD12C,1.600000*%
%ADD13R,1.600000X1.600000*%
%ADD14O,1.600000X1.600000*%
%ADD15R,3.000000X3.000000*%
%ADD16C,3.000000*%
G04 APERTURE END LIST*
D10*
%TO.C,J2*%
X76000000Y-9000000D03*
D11*
X76000000Y-11540000D03*
X76000000Y-14080000D03*
%TD*%
D12*
%TO.C,C2*%
X60000000Y-47000000D03*
X65000000Y-47000000D03*
%TD*%
D13*
%TO.C,U2*%
X49000000Y-9000000D03*
D14*
X49000000Y-11540000D03*
X49000000Y-14080000D03*
X49000000Y-16620000D03*
X49000000Y-19160000D03*
X49000000Y-21700000D03*
X49000000Y-24240000D03*
X56620000Y-24240000D03*
X56620000Y-21700000D03*
X56620000Y-19160000D03*
X56620000Y-16620000D03*
X56620000Y-14080000D03*
X56620000Y-11540000D03*
X56620000Y-9000000D03*
%TD*%
D12*
%TO.C,R2*%
X25000000Y-40000000D03*
D14*
X35160000Y-40000000D03*
%TD*%
D10*
%TO.C,J1*%
X8000000Y-9000000D03*
D11*
X8000000Y-11540000D03*
X8000000Y-14080000D03*
X8000000Y-16620000D03*
X8000000Y-19160000D03*
%TD*%
D12*
%TO.C,C1*%
X40000000Y-40000000D03*
X45000000Y-40000000D03*
%TD*%
%TO.C,R1*%
X48000000Y-31000000D03*
D14*
X58160000Y-31000000D03*
%TD*%
D12*
%TO.C,R4*%
X13000000Y-30000000D03*
D14*
X23160000Y-30000000D03*
%TD*%
D15*
%TO.C,J3*%
X75000000Y-43000000D03*
D16*
X80080000Y-43000000D03*
%TD*%
D13*
%TO.C,U1*%
X29000000Y-9000000D03*
D14*
X29000000Y-11540000D03*
X29000000Y-14080000D03*
X29000000Y-16620000D03*
X29000000Y-19160000D03*
X29000000Y-21700000D03*
X29000000Y-24240000D03*
X36620000Y-24240000D03*
X36620000Y-21700000D03*
X36620000Y-19160000D03*
X36620000Y-16620000D03*
X36620000Y-14080000D03*
X36620000Y-11540000D03*
X36620000Y-9000000D03*
%TD*%
D12*
%TO.C,R3*%
X25000000Y-47000000D03*
D14*
X35160000Y-47000000D03*
%TD*%
M02*
