M48
; TARS-Lite ServoBus-6; units mm
METRIC,TZ
T01C1.300
T02C0.900
%
T01
X0005000000Y0010000000
T01
X0010080000Y0010000000
T02
X0020000000Y0010000000
T02
X0022540000Y0010000000
T02
X0025080000Y0010000000
T02
X0027620000Y0010000000
T02
X0020000000Y0020000000
T02
X0022540000Y0020000000
T02
X0025080000Y0020000000
T02
X0027620000Y0020000000
T02
X0044000000Y0010000000
T02
X0052000000Y0010000000
T02
X0060000000Y0010000000
T02
X0068000000Y0010000000
T02
X0076000000Y0010000000
T02
X0084000000Y0010000000
T02
X0044000000Y0031000000
T02
X0044000000Y0038000000
T02
X0044000000Y0045000000
T02
X0052000000Y0031000000
T02
X0052000000Y0038000000
T02
X0052000000Y0045000000
T02
X0060000000Y0031000000
T02
X0060000000Y0038000000
T02
X0060000000Y0045000000
T02
X0068000000Y0031000000
T02
X0068000000Y0038000000
T02
X0068000000Y0045000000
T02
X0076000000Y0031000000
T02
X0076000000Y0038000000
T02
X0076000000Y0045000000
T02
X0084000000Y0031000000
T02
X0084000000Y0038000000
T02
X0084000000Y0045000000
M30
