%FSLAX46Y46*%
%MOMM*%
%LPD*%
%ADD10C,3.000*%
%ADD11C,1.800*%
%ADD12C,2.000*%
%ADD13C,1.000*%
%ADD14C,0.650*%
%ADD15C,0.010*%
%ADD20C,3.000*%
%ADD21C,1.800*%
D20*
X0005000000Y0010000000D03*
D20*
X0010080000Y0010000000D03*
D21*
X0020000000Y0010000000D03*
D21*
X0022540000Y0010000000D03*
D21*
X0025080000Y0010000000D03*
D21*
X0027620000Y0010000000D03*
D21*
X0020000000Y0020000000D03*
D21*
X0022540000Y0020000000D03*
D21*
X0025080000Y0020000000D03*
D21*
X0027620000Y0020000000D03*
D21*
X0044000000Y0010000000D03*
D21*
X0052000000Y0010000000D03*
D21*
X0060000000Y0010000000D03*
D21*
X0068000000Y0010000000D03*
D21*
X0076000000Y0010000000D03*
D21*
X0084000000Y0010000000D03*
D21*
X0044000000Y0031000000D03*
D21*
X0044000000Y0038000000D03*
D21*
X0044000000Y0045000000D03*
D21*
X0052000000Y0031000000D03*
D21*
X0052000000Y0038000000D03*
D21*
X0052000000Y0045000000D03*
D21*
X0060000000Y0031000000D03*
D21*
X0060000000Y0038000000D03*
D21*
X0060000000Y0045000000D03*
D21*
X0068000000Y0031000000D03*
D21*
X0068000000Y0038000000D03*
D21*
X0068000000Y0045000000D03*
D21*
X0076000000Y0031000000D03*
D21*
X0076000000Y0038000000D03*
D21*
X0076000000Y0045000000D03*
D21*
X0084000000Y0031000000D03*
D21*
X0084000000Y0038000000D03*
D21*
X0084000000Y0045000000D03*
D14*
X0044000000Y0010000000D02*
X0044000000Y0045000000D01*
D14*
X0052000000Y0010000000D02*
X0052000000Y0045000000D01*
D14*
X0060000000Y0010000000D02*
X0060000000Y0045000000D01*
D14*
X0068000000Y0010000000D02*
X0068000000Y0045000000D01*
D14*
X0076000000Y0010000000D02*
X0076000000Y0045000000D01*
D14*
X0084000000Y0010000000D02*
X0084000000Y0045000000D01*
M02*
